<svg xmlns="http://www.w3.org/2000/svg" version="1.1" xmlns:xlink="http://www.w3.org/1999/xlink" xmlns:svgjs="http://svgjs.com/svgjs" width="1980" height="1080" preserveAspectRatio="none" viewBox="0 0 1980 1080"><g mask="url(&quot;#SvgjsMask1022&quot;)" fill="none"><rect width="1980" height="1080" x="0" y="0" fill="rgba(33, 73, 115, 1)"></rect><path d="M-116.61 301.19C110.17 313.66 322.31 681.96 688.36 722.39 1054.41 762.82 949.53 1108.75 1090.85 1145.04" stroke="rgba(83, 141, 235, 1)" stroke-width="2"></path><path d="M-14.53 394.78C162.5 403.12 244.93 673.69 621.42 707.98 997.92 742.27 1056.54 1183.31 1257.38 1212.72" stroke="rgba(83, 141, 235, 1)" stroke-width="2"></path><path d="M-113.54 899.58C146.98 894.1 493.02 542.2 865.96 543.18 1238.9 544.16 1170.39 1092.5 1355.71 1157.7" stroke="rgba(83, 141, 235, 1)" stroke-width="2"></path><path d="M-8.89 647.91C137.8 648.82 276.62 782.91 562.12 782.91 847.63 782.91 830.84 642.26 1133.14 647.91 1435.43 653.56 1512.85 1141.71 1704.15 1180.88" stroke="rgba(83, 141, 235, 1)" stroke-width="2"></path><path d="M-201.4 744.21C12.25 732.19 246.57 334.31 555.55 344.61 864.53 354.91 750.92 1076.39 934.03 1234.1" stroke="rgba(83, 141, 235, 1)" stroke-width="2"></path></g><defs><mask id="SvgjsMask1022"><rect width="1980" height="1080" fill="#ffffff"></rect></mask></defs></svg>